<mxfile host="app.diagrams.net" modified="2023-06-13T10:31:41.888Z" agent="Mozilla/5.0 (Windows NT 10.0; Win64; x64; rv:109.0) Gecko/20100101 Firefox/113.0" version="21.3.8" etag="VpYMNktX-e0cJSZhcoF1" type="github">
  <diagram name="Pagina-1" id="lOjfWds52b_0qGFPx7Ow">
    <mxGraphModel>
      <root>
        <mxCell id="0" />
        <mxCell id="1" parent="0" />
      </root>
    </mxGraphModel>
  </diagram>
</mxfile>
